<svg width="25" height="25" viewBox="0 0 25 25" fill="none" xmlns="http://www.w3.org/2000/svg">
<path d="M12.4854 11.6699L19.126 5.0293C19.585 4.57031 20.3272 4.57031 20.7813 5.0293L21.8848 6.13281C22.3438 6.5918 22.3438 7.33398 21.8848 7.78809L17.1826 12.5L21.8897 17.207C22.3486 17.666 22.3486 18.4082 21.8897 18.8623L20.7861 19.9707C20.3272 20.4297 19.585 20.4297 19.1309 19.9707L12.4902 13.3301C12.0264 12.8711 12.0264 12.1289 12.4854 11.6699ZM3.11035 13.3301L9.75098 19.9707C10.21 20.4297 10.9522 20.4297 11.4063 19.9707L12.5098 18.8672C12.9688 18.4082 12.9688 17.666 12.5098 17.2119L7.80762 12.5L12.5147 7.79297C12.9736 7.33398 12.9736 6.5918 12.5147 6.1377L11.4111 5.0293C10.9522 4.57031 10.21 4.57031 9.75586 5.0293L3.11524 11.6699C2.65137 12.1289 2.65137 12.8711 3.11035 13.3301Z" fill="white"/>
</svg>
