<svg width="25" height="25" viewBox="0 0 25 25" fill="none" xmlns="http://www.w3.org/2000/svg">
<g clip-path="url(#clip0)">
<path d="M12.1694 11.0438L4.16726 17.6345V24.7478C4.16726 24.932 4.24042 25.1086 4.37065 25.2389C4.50089 25.3691 4.67752 25.4423 4.8617 25.4423L9.72542 25.4297C9.90899 25.4288 10.0847 25.3552 10.2142 25.225C10.3437 25.0949 10.4164 24.9188 10.4164 24.7352V20.5811C10.4164 20.397 10.4896 20.2203 10.6198 20.0901C10.75 19.9599 10.9267 19.8867 11.1108 19.8867H13.8886C14.0728 19.8867 14.2494 19.9599 14.3797 20.0901C14.5099 20.2203 14.5831 20.397 14.5831 20.5811V24.7322C14.5828 24.8236 14.6005 24.9141 14.6353 24.9986C14.6701 25.0831 14.7212 25.1599 14.7857 25.2246C14.8502 25.2894 14.9268 25.3407 15.0112 25.3757C15.0956 25.4108 15.1861 25.4288 15.2775 25.4288L20.1395 25.4423C20.3237 25.4423 20.5003 25.3691 20.6305 25.2389C20.7608 25.1086 20.8339 24.932 20.8339 24.7478V17.6298L12.8335 11.0438C12.7394 10.968 12.6223 10.9267 12.5015 10.9267C12.3806 10.9267 12.2635 10.968 12.1694 11.0438ZM24.8096 15.5234L21.1811 12.5325V6.52082C21.1811 6.38268 21.1263 6.25021 21.0286 6.15253C20.9309 6.05486 20.7984 5.99998 20.6603 5.99998H18.2298C18.0916 5.99998 17.9591 6.05486 17.8615 6.15253C17.7638 6.25021 17.7089 6.38268 17.7089 6.52082V9.67229L13.8231 6.47525C13.4502 6.16838 12.9822 6.0006 12.4993 6.0006C12.0163 6.0006 11.5484 6.16838 11.1755 6.47525L0.188957 15.5234C0.136218 15.567 0.0925839 15.6206 0.0605492 15.681C0.0285144 15.7415 0.00870666 15.8077 0.00225761 15.8758C-0.00419144 15.9439 0.00284463 16.0126 0.0229638 16.078C0.043083 16.1434 0.0758909 16.2042 0.119513 16.2569L1.22628 17.6024C1.26979 17.6553 1.3233 17.6991 1.38375 17.7313C1.4442 17.7635 1.51041 17.7834 1.57858 17.79C1.64675 17.7966 1.71555 17.7897 1.78104 17.7696C1.84653 17.7495 1.90742 17.7168 1.96022 17.6732L12.1694 9.26431C12.2635 9.18849 12.3806 9.14715 12.5015 9.14715C12.6223 9.14715 12.7394 9.18849 12.8335 9.26431L23.0431 17.6732C23.0958 17.7168 23.1566 17.7496 23.222 17.7697C23.2874 17.7898 23.3561 17.7969 23.4243 17.7904C23.4924 17.784 23.5586 17.7642 23.619 17.7321C23.6795 17.7001 23.733 17.6565 23.7766 17.6037L24.8834 16.2582C24.927 16.2052 24.9596 16.1441 24.9795 16.0784C24.9994 16.0127 25.0061 15.9438 24.9993 15.8755C24.9924 15.8072 24.9721 15.7409 24.9396 15.6805C24.907 15.6201 24.8629 15.5667 24.8096 15.5234Z" fill="white"/>
</g>
<defs>
<clipPath id="clip0">
<rect width="25" height="25" fill="white"/>
</clipPath>
</defs>
</svg>
