<svg width="16" height="16" viewBox="0 0 16 16" fill="none" xmlns="http://www.w3.org/2000/svg">
<path d="M6.74994 8.125C6.74994 8.60825 6.35819 9 5.87494 9C5.39169 9 4.99994 8.60825 4.99994 8.125C4.99994 6.7465 6.12144 5.625 7.49994 5.625C8.87844 5.625 9.99994 6.7465 9.99994 8.125C9.99994 8.60825 9.60819 9 9.12494 9C8.64169 9 8.24994 8.60825 8.24994 8.125C8.24994 7.71144 7.91347 7.375 7.49994 7.375C7.08641 7.375 6.74994 7.71144 6.74994 8.125ZM7.49994 2.625C4.46722 2.625 1.99994 5.09228 1.99994 8.125C1.99994 8.60825 2.39169 9 2.87494 9C3.35819 9 3.74994 8.60825 3.74994 8.125C3.74994 6.05725 5.43219 4.375 7.49994 4.375C9.56769 4.375 11.2499 6.05725 11.2499 8.125C11.2499 10.4739 9.03091 10.3222 9.00003 12.6132L8.99994 12.625C8.99994 13.521 8.27097 14.25 7.37494 14.25C6.89169 14.25 6.49994 14.6417 6.49994 15.125C6.49994 15.6082 6.89169 16 7.37494 16C9.23353 16 10.7461 14.4897 10.7499 12.6321C10.7685 11.5562 12.9999 11.1246 12.9999 8.125C12.9999 5.09228 10.5327 2.625 7.49994 2.625ZM4.99994 10C4.44766 10 3.99994 10.4477 3.99994 11C3.99994 11.5523 4.44766 12 4.99994 12C5.55222 12 5.99994 11.5523 5.99994 11C5.99994 10.4477 5.55222 10 4.99994 10ZM0.999939 14C0.447658 14 -6.10352e-05 14.4477 -6.10352e-05 15C-6.10352e-05 15.5523 0.447658 16 0.999939 16C1.55222 16 1.99994 15.5523 1.99994 15C1.99994 14.4477 1.55222 14 0.999939 14ZM15.9999 8.12522C15.9999 8.07778 15.9996 8.03069 15.9985 7.98362C15.9398 4.3914 13.6298 1.20218 10.2498 0.0472153C9.79247 -0.108972 9.2951 0.134997 9.13881 0.592278C8.98256 1.04956 9.22663 1.54693 9.68388 1.70322C12.3684 2.62053 14.2029 5.15675 14.2488 8.01425L14.2489 8.02012C14.2497 8.05506 14.2499 8.09 14.2499 8.12522C14.2499 8.60847 14.6417 9.00022 15.1249 9.00022C15.6082 9.00022 15.9999 8.60847 15.9999 8.12522ZM4.78028 13.7197L2.28028 11.2197L1.21963 12.2803L3.71963 14.7803L4.78028 13.7197Z" fill="white"/>
</svg>
