<svg width="260" height="49" viewBox="0 0 260 49" fill="none" xmlns="http://www.w3.org/2000/svg">
<path d="M40.7142 11.1251V20.3126C40.7142 20.5513 40.6584 20.7867 40.5513 21C40.4441 21.2134 40.2886 21.3987 40.0971 21.5412C39.9055 21.6837 39.6833 21.7794 39.4482 21.8208C39.2131 21.8621 38.9716 21.8479 38.7429 21.7793L25.4017 17.7768V34.0938C25.4048 36.2014 24.6842 38.246 23.3605 39.886C22.0368 41.526 20.1902 42.6618 18.1295 43.1036C16.0688 43.5454 13.9189 43.2663 12.0393 42.3131C10.1597 41.3599 8.66426 39.7903 7.8031 37.8667C6.94195 35.9432 6.76725 33.7823 7.30823 31.7454C7.84921 29.7084 9.07307 27.919 10.7752 26.6762C12.4773 25.4334 14.5544 24.8126 16.6593 24.9177C18.7642 25.0227 20.7693 25.8471 22.3392 27.2532V15.7544C22.3387 15.7312 22.3387 15.7079 22.3392 15.6844V6.53134C22.3392 6.29262 22.395 6.0572 22.5022 5.84388C22.6093 5.63056 22.7649 5.44525 22.9564 5.30275C23.1479 5.16025 23.3701 5.0645 23.6052 5.02315C23.8403 4.9818 24.0819 4.99599 24.3105 5.06459L39.623 9.65834C39.9385 9.75298 40.215 9.94678 40.4115 10.211C40.6081 10.4752 40.7143 10.7958 40.7142 11.1251V11.1251Z" fill="white"/>
<path d="M92.7695 43H87.9081V27.1543L79.3544 42.2021C79.1441 42.5856 78.8473 42.8763 78.4638 43.0742C78.0927 43.2721 77.6907 43.3711 77.2578 43.3711C76.8372 43.3711 76.4413 43.2721 76.0703 43.0742C75.7115 42.8763 75.427 42.5856 75.2167 42.2021L66.6259 27.1543V43H61.8017V18.4521C61.8017 17.8955 61.9625 17.4007 62.2841 16.9678C62.6181 16.5348 63.051 16.2441 63.5829 16.0957C63.8427 16.0339 64.1025 16.0153 64.3622 16.04C64.622 16.0524 64.8694 16.1081 65.1044 16.207C65.3518 16.2936 65.5745 16.4235 65.7724 16.5967C65.9703 16.7575 66.1373 16.9554 66.2734 17.1904L77.2578 36.2832L88.2421 17.1904C88.5266 16.7204 88.9163 16.3864 89.4111 16.1885C89.9182 15.9906 90.4439 15.9596 90.9882 16.0957C91.5078 16.2441 91.9345 16.5348 92.2685 16.9678C92.6025 17.4007 92.7695 17.8955 92.7695 18.4521V43ZM119.674 40.5693C119.674 40.9157 119.612 41.2373 119.488 41.5342C119.365 41.8311 119.191 42.0908 118.969 42.3135C118.758 42.5238 118.505 42.6908 118.208 42.8145C117.923 42.9382 117.614 43 117.28 43H106.37C105.776 43 105.139 42.932 104.459 42.7959C103.791 42.6598 103.129 42.4434 102.474 42.1465C101.818 41.8372 101.181 41.4538 100.562 40.9961C99.9563 40.526 99.4244 39.9632 98.9667 39.3076C98.5091 38.6396 98.138 37.8727 97.8535 37.0068C97.5813 36.141 97.4453 35.1637 97.4453 34.0752V22.9424H102.269V34.0752C102.269 34.7061 102.375 35.2751 102.585 35.7822C102.808 36.277 103.104 36.7038 103.476 37.0625C103.847 37.4212 104.28 37.6995 104.774 37.8975C105.282 38.083 105.826 38.1758 106.407 38.1758H114.85V22.9424H119.674V40.5693ZM143.591 36.2275C143.591 37.0563 143.486 37.8047 143.275 38.4727C143.065 39.1283 142.787 39.7096 142.44 40.2168C142.094 40.7116 141.692 41.1383 141.234 41.4971C140.777 41.8434 140.294 42.1279 139.787 42.3506C139.292 42.5732 138.785 42.7402 138.266 42.8516C137.758 42.9505 137.276 43 136.818 43H123.756V38.1758H136.781C137.437 38.1758 137.932 38.0088 138.266 37.6748C138.6 37.3408 138.767 36.8584 138.767 36.2275C138.705 34.9411 138.055 34.2979 136.818 34.2979H129.341C128.277 34.2979 127.374 34.1123 126.632 33.7412C125.89 33.3701 125.283 32.9062 124.813 32.3496C124.356 31.793 124.022 31.193 123.811 30.5498C123.614 29.9066 123.515 29.3066 123.515 28.75C123.515 27.6738 123.706 26.7708 124.09 26.041C124.473 25.2988 124.956 24.6989 125.537 24.2412C126.118 23.7835 126.749 23.4557 127.43 23.2578C128.11 23.0475 128.747 22.9424 129.341 22.9424H141.197V27.7666H129.378C129.13 27.7666 128.933 27.7975 128.784 27.8594C128.648 27.9089 128.543 27.9831 128.469 28.082C128.407 28.1686 128.37 28.2676 128.357 28.3789C128.345 28.4779 128.339 28.5768 128.339 28.6758C128.351 28.8737 128.388 29.0283 128.45 29.1396C128.512 29.251 128.586 29.3314 128.673 29.3809C128.772 29.4303 128.877 29.4613 128.988 29.4736C129.112 29.4736 129.229 29.4736 129.341 29.4736H136.818C138.055 29.4736 139.107 29.6963 139.973 30.1416C140.838 30.5869 141.537 31.1497 142.069 31.8301C142.601 32.498 142.985 33.2279 143.22 34.0195C143.467 34.8112 143.591 35.5472 143.591 36.2275ZM168.565 29.585C168.565 30.2529 168.448 30.9766 168.213 31.7559C167.978 32.5228 167.594 33.2402 167.062 33.9082C166.543 34.5638 165.856 35.1143 165.003 35.5596C164.162 36.0049 163.135 36.2275 161.923 36.2275H153.221V31.6445H161.923C162.578 31.6445 163.086 31.4466 163.444 31.0508C163.803 30.6426 163.982 30.1416 163.982 29.5479C163.982 28.917 163.778 28.4222 163.37 28.0635C162.974 27.7048 162.492 27.5254 161.923 27.5254H153.221C152.565 27.5254 152.058 27.7295 151.699 28.1377C151.34 28.5335 151.161 29.0283 151.161 29.6221V36.3574C151.161 37.0007 151.359 37.5016 151.755 37.8604C152.163 38.2191 152.664 38.3984 153.258 38.3984H161.923V43H153.221C152.553 43 151.829 42.8825 151.05 42.6475C150.283 42.4124 149.565 42.0352 148.897 41.5156C148.242 40.9837 147.691 40.2972 147.246 39.4561C146.801 38.6025 146.578 37.5697 146.578 36.3574V29.585C146.578 28.917 146.696 28.1995 146.931 27.4326C147.166 26.6533 147.543 25.9359 148.062 25.2803C148.594 24.6123 149.281 24.0557 150.122 23.6104C150.976 23.165 152.008 22.9424 153.221 22.9424H161.923C162.591 22.9424 163.308 23.0599 164.075 23.2949C164.854 23.5299 165.572 23.9134 166.227 24.4453C166.895 24.9648 167.452 25.6514 167.897 26.5049C168.343 27.346 168.565 28.3727 168.565 29.585Z" fill="white"/>
</svg>
