<svg width="49" height="49" viewBox="0 0 49 49" fill="none" xmlns="http://www.w3.org/2000/svg">
<path d="M40.7142 11.1251V20.3126C40.7142 20.5513 40.6584 20.7867 40.5513 21C40.4441 21.2134 40.2886 21.3987 40.0971 21.5412C39.9055 21.6837 39.6833 21.7794 39.4482 21.8208C39.2131 21.8621 38.9716 21.8479 38.7429 21.7793L25.4017 17.7768V34.0938C25.4048 36.2014 24.6842 38.246 23.3605 39.886C22.0368 41.526 20.1902 42.6618 18.1295 43.1036C16.0688 43.5454 13.9189 43.2663 12.0393 42.3131C10.1597 41.3599 8.66426 39.7903 7.8031 37.8667C6.94195 35.9432 6.76725 33.7823 7.30823 31.7454C7.84921 29.7084 9.07307 27.919 10.7752 26.6762C12.4773 25.4334 14.5544 24.8126 16.6593 24.9177C18.7642 25.0227 20.7693 25.8471 22.3392 27.2532V15.7544C22.3387 15.7312 22.3387 15.7079 22.3392 15.6844V6.53134C22.3392 6.29262 22.395 6.0572 22.5022 5.84388C22.6093 5.63056 22.7649 5.44525 22.9564 5.30275C23.1479 5.16025 23.3701 5.0645 23.6052 5.02315C23.8403 4.9818 24.0819 4.99599 24.3105 5.06459L39.623 9.65834C39.9384 9.75298 40.215 9.94678 40.4115 10.211C40.6081 10.4752 40.7143 10.7958 40.7142 11.1251Z" fill="white"/>
</svg>
