<svg width="18" height="18" viewBox="0 0 18 18" fill="none" xmlns="http://www.w3.org/2000/svg">
<path d="M13.1632 4.54645C12.0287 3.48416 10.5564 2.90185 8.99442 2.90323C6.18345 2.90569 3.75671 4.83307 3.08668 7.50665C3.03791 7.70128 2.86452 7.83871 2.66387 7.83871H0.584322C0.312217 7.83871 0.105507 7.59168 0.155842 7.32426C0.941056 3.1545 4.60202 0 8.99994 0C11.4114 0 13.6012 0.948484 15.217 2.4926L16.5131 1.19649C17.0618 0.647819 17.9999 1.03642 17.9999 1.81238V6.67742C17.9999 7.15845 17.61 7.54839 17.129 7.54839H12.2639C11.488 7.54839 11.0994 6.61025 11.648 6.06154L13.1632 4.54645ZM0.870907 10.4516H5.73595C6.51191 10.4516 6.90051 11.3898 6.35183 11.9385L4.83671 13.4536C5.97122 14.5159 7.44363 15.0982 9.0056 15.0968C11.8151 15.0943 14.2428 13.1682 14.9132 10.4934C14.962 10.2988 15.1354 10.1614 15.336 10.1614H17.4156C17.6877 10.1614 17.8944 10.4084 17.8441 10.6758C17.0588 14.8455 13.3979 18 8.99994 18C6.58852 18 4.39865 17.0515 2.78286 15.5074L1.48675 16.8035C0.93808 17.3522 -6.10352e-05 16.9636 -6.10352e-05 16.1876V11.3226C-6.10352e-05 10.8416 0.389878 10.4516 0.870907 10.4516Z" fill="white"/>
</svg>
