<svg width="25" height="25" viewBox="0 0 25 25" fill="none" xmlns="http://www.w3.org/2000/svg">
<g clip-path="url(#clip0)">
<path d="M24.6581 21.6162L19.79 16.748C19.5703 16.5283 19.2724 16.4062 18.9599 16.4062H18.164C19.5117 14.6826 20.3124 12.5146 20.3124 10.1562C20.3124 4.54587 15.7665 -3.05176e-05 10.1562 -3.05176e-05C4.54584 -3.05176e-05 -6.10352e-05 4.54587 -6.10352e-05 10.1562C-6.10352e-05 15.7666 4.54584 20.3125 10.1562 20.3125C12.5146 20.3125 14.6826 19.5117 16.4062 18.164V18.9599C16.4062 19.2724 16.5283 19.5703 16.748 19.79L21.6161 24.6582C22.0751 25.1172 22.8173 25.1172 23.2714 24.6582L24.6533 23.2763C25.1122 22.8174 25.1122 22.0752 24.6581 21.6162ZM10.1562 16.4062C6.70404 16.4062 3.90619 13.6133 3.90619 10.1562C3.90619 6.70407 6.69916 3.90622 10.1562 3.90622C13.6083 3.90622 16.4062 6.69919 16.4062 10.1562C16.4062 13.6084 13.6132 16.4062 10.1562 16.4062Z" fill="white"/>
</g>
<defs>
<clipPath id="clip0">
<rect width="25" height="25" fill="white"/>
</clipPath>
</defs>
</svg>
