<svg width="25" height="21" viewBox="0 0 25 21" fill="none" xmlns="http://www.w3.org/2000/svg">
<path d="M9.33284 2.40853L5.47129 6.29991H1.04161C0.466085 6.29991 -6.10352e-05 6.76976 -6.10352e-05 7.34986V13.6496C-6.10352e-05 14.2292 0.466085 14.6995 1.04161 14.6995H5.47129L9.33284 18.5909C9.98518 19.2484 11.111 18.7864 11.111 17.8485V3.15093C11.111 2.2121 9.98431 1.75187 9.33284 2.40853ZM19.4596 0.173882C18.9748 -0.14679 18.3233 -0.0116092 18.0051 0.47793C17.6866 0.966595 17.822 1.62325 18.3068 1.94392C21.1831 3.84652 22.8997 7.04493 22.8997 10.5001C22.8997 13.9554 21.1831 17.1538 18.3068 19.0564C17.822 19.3766 17.6866 20.0337 18.0051 20.5219C18.3107 20.9905 18.957 21.1589 19.4596 20.826C22.9283 18.531 24.9999 14.6702 24.9999 10.4997C24.9999 6.32922 22.9283 2.4689 19.4596 0.173882ZM20.8333 10.4997C20.8333 7.7204 19.4418 5.16508 17.1106 3.66453C16.6249 3.35217 15.9808 3.49741 15.6731 3.99089C15.3654 4.48437 15.5091 5.13752 15.9947 5.45032C17.72 6.56108 18.7499 8.44837 18.7499 10.4997C18.7499 12.5511 17.72 14.4383 15.9947 15.5491C15.5091 15.8615 15.3654 16.5146 15.6731 17.0085C15.9557 17.4618 16.5898 17.6709 17.1106 17.3349C19.4418 15.8343 20.8333 13.2795 20.8333 10.4997ZM14.6801 7.13681C14.1775 6.85988 13.5433 7.04231 13.2647 7.55022C12.9874 8.05814 13.1709 8.69642 13.6749 8.97684C14.2352 9.28702 14.5833 9.87105 14.5833 10.4997C14.5833 11.1288 14.2352 11.7124 13.6753 12.0226C13.1714 12.303 12.9878 12.9413 13.2651 13.4492C13.5442 13.9593 14.1788 14.1404 14.6805 13.8626C15.9058 13.1823 16.667 11.894 16.667 10.4993C16.667 9.10459 15.9058 7.81665 14.6801 7.13681Z" fill="#F4F1F1"/>
</svg>
